<?xml version="1.0" standalone="no"?>
<!DOCTYPE svg PUBLIC "-//W3C//DTD SVG 20010904//EN"
 "http://www.w3.org/TR/2001/REC-SVG-20010904/DTD/svg10.dtd">
<svg version="1.0" xmlns="http://www.w3.org/2000/svg"
 width="1200.000000pt" height="1200.000000pt" viewBox="0 0 1200.000000 1200.000000"
 preserveAspectRatio="xMidYMid meet">
<metadata>
Created by potrace 1.11, written by Peter Selinger 2001-2013
</metadata>
<g transform="translate(0.000000,1200.000000) scale(0.100000,-0.100000)"
fill="#000000" stroke="none">
<path d="M6097 8390 c-432 -73 -753 -450 -750 -880 2 -244 94 -463 266 -632
163 -160 349 -242 579 -255 168 -9 286 15 440 92 219 110 389 315 459 556 30
104 37 306 15 413 -44 214 -179 420 -361 552 -66 48 -193 108 -285 134 -83 24
-277 34 -363 20z m116 -202 c69 -93 108 -218 103 -332 -4 -73 -34 -186 -59
-221 -13 -17 -16 -15 -31 37 -48 166 -173 338 -294 408 -34 19 -62 38 -62 42
0 10 144 67 206 81 97 22 110 21 137 -15z m251 -8 c75 -25 167 -75 212 -114
l36 -31 -16 -69 c-44 -187 -159 -320 -333 -383 l-63 -23 45 88 c65 129 89 224
88 352 -1 64 -7 124 -16 153 -8 26 -14 47 -13 47 2 0 28 -9 60 -20z m-545
-256 c93 -46 175 -126 217 -214 57 -117 57 -117 -25 -76 -111 56 -214 87 -311
93 -78 5 -191 -7 -236 -24 -13 -5 -15 -2 -9 18 15 54 68 155 107 209 l42 57
71 -13 c38 -8 103 -30 144 -50z m1001 -225 c11 -41 20 -91 20 -112 0 -35 -4
-40 -59 -76 -131 -84 -295 -107 -436 -62 -38 13 -80 28 -93 35 -21 11 -18 13
50 35 175 56 335 173 408 299 l35 61 27 -54 c15 -29 37 -86 48 -126z m-950
-99 c62 -14 173 -61 163 -70 -4 -4 -30 -13 -58 -20 -27 -7 -91 -32 -141 -56
-110 -52 -221 -150 -274 -242 -19 -34 -38 -62 -42 -62 -19 -1 -80 185 -93 286
-5 39 -3 42 33 66 137 91 284 126 412 98z m168 -147 c-2 -5 -15 -30 -29 -58
-97 -184 -118 -367 -63 -557 4 -13 0 -15 -18 -11 -50 12 -186 84 -228 121
l-45 39 13 64 c33 163 134 299 275 369 78 39 102 47 95 33z m280 -82 c146 -60
303 -77 430 -45 35 9 66 13 70 10 15 -16 -60 -184 -116 -258 -34 -45 -37 -47
-76 -41 -117 15 -246 82 -322 166 -42 47 -101 153 -119 216 l-7 24 35 -22 c19
-11 66 -34 105 -50z m-113 -191 c46 -88 161 -210 243 -256 l52 -30 -37 -18
c-84 -40 -157 -62 -240 -72 -47 -6 -55 -4 -72 17 -30 37 -87 158 -100 213 -26
109 -10 251 41 350 l20 39 27 -84 c15 -46 45 -118 66 -159z"/>
<path d="M5355 6773 c-294 -256 -438 -387 -456 -416 -37 -59 -12 -143 54 -182
36 -21 98 -22 133 0 25 15 495 542 502 563 1 4 -26 35 -60 69 l-63 62 -110
-96z"/>
<path d="M4517 3614 c-1 -1 -20 -4 -42 -7 -70 -10 -72 -11 -78 -91 -4 -41 -29
-174 -57 -297 -27 -123 -51 -249 -52 -279 l-3 -55 35 1 c19 1 64 3 100 4 36 2
91 -1 122 -5 51 -7 62 -5 102 19 76 44 117 132 117 248 -1 83 -20 131 -63 158
-40 24 -66 25 -115 5 -20 -8 -38 -14 -40 -11 -2 2 5 48 16 102 19 94 24 142
22 190 -1 18 -7 21 -32 20 -17 0 -31 -2 -32 -2z m51 -401 c17 -33 -7 -186 -36
-231 -12 -18 -52 -24 -58 -7 -9 24 36 229 54 243 21 16 30 15 40 -5z"/>
<path d="M4994 3608 c-87 -17 -80 -11 -87 -92 -4 -40 -29 -174 -56 -297 -52
-233 -64 -308 -51 -329 6 -10 24 -10 88 0 61 9 89 9 113 1 112 -39 220 28 260
161 15 48 12 162 -5 202 -16 39 -67 76 -104 76 -12 0 -39 -7 -59 -15 -20 -8
-38 -14 -40 -11 -2 2 5 48 16 102 19 94 24 142 22 190 -1 24 -23 26 -97 12z
m84 -395 c17 -33 -7 -186 -36 -231 -12 -18 -52 -24 -58 -7 -9 24 36 229 54
243 21 16 30 15 40 -5z"/>
<path d="M5464 3605 l-59 -10 -2 -71 c-3 -74 -22 -183 -68 -384 -36 -156 -37
-206 -1 -237 40 -34 106 -31 184 8 58 29 61 31 50 55 -10 21 -16 23 -46 18
l-35 -7 6 59 c3 33 21 131 40 219 50 230 62 313 52 343 -6 22 -27 23 -121 7z"/>
<path d="M8290 3607 c-30 -5 -58 -12 -61 -15 -4 -4 -9 -43 -12 -87 -3 -44 -11
-106 -18 -137 -11 -56 -13 -57 -38 -50 -50 14 -126 6 -163 -16 -119 -74 -161
-314 -69 -396 33 -29 108 -33 166 -7 l48 21 20 -21 c28 -30 116 -23 180 14 40
24 45 30 38 50 -7 16 -16 21 -35 19 -26 -3 -28 1 -29 43 0 26 14 138 18 145 2
3 6 21 9 40 3 19 15 80 26 135 46 222 46 277 -3 273 -12 -1 -47 -6 -77 -11z
m-126 -366 c3 -4 -1 -44 -9 -87 -8 -43 -16 -95 -18 -115 -3 -20 -8 -42 -11
-48 -11 -17 -46 -13 -53 5 -13 36 -5 142 17 199 16 44 59 71 74 46z"/>
<path d="M3329 3586 c-2 -2 -27 -6 -56 -9 -74 -8 -77 -12 -47 -63 26 -44 26
-48 15 -112 -6 -37 -13 -76 -15 -87 -92 -410 -93 -414 -75 -426 7 -4 36 -5 63
-1 59 7 100 6 213 -3 97 -9 160 8 211 56 43 40 63 81 67 139 6 83 -40 147
-123 169 -26 7 -26 8 18 28 138 63 157 228 33 289 -30 15 -64 19 -169 21 -72
2 -133 1 -135 -1z m192 -87 c28 -53 -23 -181 -76 -195 -14 -4 -28 -4 -31 -2
-2 3 2 36 10 74 7 38 17 86 20 107 6 33 10 37 36 37 20 0 33 -7 41 -21z m-21
-309 c14 -27 12 -115 -4 -153 -25 -59 -77 -85 -138 -69 -17 4 -19 10 -13 41 4
20 9 45 11 56 26 138 30 149 54 155 32 8 78 -7 90 -30z"/>
<path d="M6497 3576 c-94 -35 -177 -119 -219 -223 -19 -49 -23 -76 -23 -178 0
-114 1 -123 29 -173 50 -89 122 -128 225 -120 69 5 150 42 204 94 l38 36 -22
24 c-21 22 -24 23 -43 9 -39 -29 -101 -55 -133 -55 -76 0 -114 81 -108 235 6
179 83 316 163 290 18 -5 19 -10 11 -38 -16 -56 -12 -67 34 -87 24 -11 62 -22
85 -26 41 -6 42 -6 57 29 31 75 9 133 -65 170 -56 27 -176 34 -233 13z"/>
<path d="M5754 3313 c-99 -33 -156 -115 -160 -231 -3 -77 6 -111 40 -151 63
-72 215 -66 319 13 35 27 36 29 21 52 l-16 23 -39 -19 c-55 -29 -104 -26 -125
5 -19 29 -14 38 22 42 50 7 131 44 161 73 34 33 48 85 34 121 -29 77 -145 109
-257 72z m98 -111 c-11 -36 -55 -92 -72 -92 -11 0 0 71 16 102 8 15 22 31 31
37 28 15 38 -3 25 -47z"/>
<path d="M6926 3308 c-124 -64 -172 -321 -75 -402 40 -34 100 -35 162 -2 l45
24 23 -24 c27 -29 73 -32 140 -9 65 23 90 45 82 73 -5 20 -11 23 -34 18 -32
-6 -43 13 -35 60 3 16 8 49 11 74 3 25 12 71 20 103 9 33 13 63 10 68 -6 9
-59 25 -112 32 -20 3 -36 0 -43 -8 -9 -11 -17 -11 -46 1 -45 19 -102 15 -148
-8z m152 -67 c11 -6 11 -17 3 -47 -10 -37 -22 -122 -25 -172 -3 -49 -65 -52
-67 -3 -6 97 11 181 42 212 21 21 28 23 47 10z"/>
<path d="M7637 3303 c-60 -28 -63 -28 -70 -2 -6 21 -10 22 -98 16 -51 -4 -97
-11 -103 -17 -6 -6 -3 -21 9 -44 18 -34 18 -36 -8 -168 -15 -73 -29 -149 -30
-168 l-2 -35 56 1 c30 1 72 4 92 8 33 6 37 10 37 37 0 27 33 208 46 250 2 9
16 21 30 27 37 17 39 -2 15 -113 -24 -109 -26 -147 -10 -178 17 -31 28 -37 79
-37 42 0 170 49 170 65 0 4 -5 15 -10 26 -8 14 -17 18 -35 13 -36 -9 -39 11
-16 112 37 159 34 192 -19 219 -37 19 -72 16 -133 -12z"/>
<path d="M3817 3310 c-50 -9 -53 -14 -30 -47 23 -32 22 -53 -7 -158 -45 -164
-25 -225 73 -225 27 0 70 9 98 21 l50 22 23 -22 c29 -27 88 -28 158 0 66 25
79 38 71 67 -5 19 -10 22 -34 17 -26 -6 -29 -4 -29 19 0 14 9 72 20 129 11 58
23 124 26 147 l6 43 -86 -5 c-47 -2 -88 -6 -90 -9 -2 -2 -7 -24 -11 -49 -3
-25 -16 -94 -28 -153 -22 -111 -36 -134 -71 -121 -21 8 -20 32 9 144 14 52 25
117 25 143 l0 48 -67 -2 c-38 -2 -85 -6 -106 -9z"/>
<path d="M8513 3307 l-51 -10 0 -45 c0 -25 -10 -93 -23 -152 -35 -173 -14
-218 100 -207 32 2 72 12 89 21 24 12 32 13 32 4 0 -24 -15 -35 -67 -52 -100
-33 -144 -80 -130 -138 17 -65 154 -78 226 -20 102 81 140 192 197 576 l6 39
-64 -6 c-116 -11 -112 -6 -132 -154 -24 -177 -23 -173 -56 -173 -39 0 -40 17
-13 150 12 63 22 129 20 145 -2 28 -5 30 -42 30 -22 1 -63 -3 -92 -8z m117
-506 c-10 -20 -57 -61 -69 -61 -3 0 -13 5 -21 10 -22 14 -2 41 41 56 51 19 62
18 49 -5z"/>
</g>
</svg>
